<svg height="512pt" viewBox="0 -121 512 512" width="512pt" xmlns="http://www.w3.org/2000/svg"><path d="m12.054688 60.292969c-7 1.40625-12.054688 7.558593-12.054688 14.707031v120c0 7.148438 5.054688 13.300781 12.054688 14.707031l151 30v-209.414062zm0 0" fill="#575f64"/><g fill="#fdbf00"><path d="m60 81.292969v38.707031h-30v-32.710938zm0 0"/><path d="m30 150h30v38.707031l-30-5.996093zm0 0"/><path d="m90 194.707031v-119.414062l74.125-14.621094v148.65625zm0 0"/></g><path d="m499.945312 60.292969c7 1.40625 12.054688 7.558593 12.054688 14.707031v120c0 7.148438-5.054688 13.300781-12.054688 14.707031l-151 30v-209.414062zm0 0" fill="#32393f"/><path d="m482 87.289062v32.710938h-30v-38.707031zm0 0" fill="#ff9100"/><path d="m482 182.710938-30 5.996093v-38.707031h30zm0 0" fill="#ff9100"/><path d="m347.875 209.328125v-148.65625l74.125 14.621094v119.414062zm0 0" fill="#ff9100"/><path d="m407.800781 127.5-69.601562-120c-2.699219-4.800781-7.800781-7.5-12.898438-7.5h-138.601562c-5.097657 0-10.199219 2.699219-12.898438 7.5l-69.601562 120c-2.699219 4.5-2.699219 10.5 0 15l69.601562 120c2.699219 4.800781 7.800781 7.5 12.898438 7.5h138.601562c5.097657 0 10.199219-2.699219 12.898438-7.5l69.601562-120c2.699219-4.5 2.699219-10.5 0-15zm0 0" fill="#ffda2d"/><path d="m407.800781 142.5-69.601562 120c-2.699219 4.800781-7.800781 7.5-12.898438 7.5h-69.300781v-270h69.300781c5.097657 0 10.199219 2.699219 12.898438 7.5l69.601562 120c2.699219 4.5 2.699219 10.5 0 15zm0 0" fill="#fdbf00"/><path d="m327.398438 111.898438c-1.796876-5.398438-6.597657-9.300782-12-10.199219l-31.800782-4.800781-14.097656-28.5c-2.699219-5.097657-8.101562-7.800782-13.5-7.800782s-10.800781 2.703125-13.5 7.800782l-14.097656 28.5-31.800782 4.800781c-5.402343.898437-10.203124 4.800781-12 10.199219-1.800781 5.402343-.300781 11.101562 3.898438 15.300781l22.800781 22.5-5.402343 31.5c-.898438 5.398437 1.5 11.101562 6 14.398437 4.5 3.300782 10.800781 3.898438 15.601562 1.203125l28.5-14.703125 28.5 14.703125c5.097656 2.695313 11.097656 2.097657 15.597656-1.203125 4.5-3.300781 6.902344-9 6-14.398437l-5.398437-31.5 22.796875-22.5c4.203125-4.199219 5.703125-9.898438 3.902344-15.300781zm0 0" fill="#fdbf00"/><path d="m323.5 127.199219-22.800781 22.5 5.402343 31.5c.898438 5.402343-1.5 11.101562-6 14.398437-4.5 3.300782-10.5 3.902344-15.601562 1.203125l-28.5-14.699219v-121.503906c5.398438 0 10.800781 2.703125 13.5 7.800782l14.097656 28.5 31.800782 4.800781c5.402343.898437 10.203124 4.800781 12 10.199219 1.800781 5.402343.300781 11.101562-3.898438 15.300781zm0 0" fill="#ff9100"/></svg>