<svg id="Layer_5" enable-background="new 0 0 64 64" height="512" viewBox="0 0 64 64" width="512" xmlns="http://www.w3.org/2000/svg"><path d="m62.387 49h-13.387v-4.424c1.763-.774 3-2.531 3-4.576v-1h-2.619c.548-.667 1.065-1.361 1.541-2.09l.259.42 4.294-2.326c1.19-.645 2.032-1.695 2.37-2.958.326-1.218.137-2.486-.53-3.571l-.496-.805-2.534 1.372c.301-1.266.517-2.554.625-3.863.258.203.532.39.83.547l.814.427 2.698-4.24c.721-1.132.93-2.459.589-3.735-.354-1.329-1.296-2.477-2.583-3.151l-.814-.427-1.992 3.13c-.267-1.296-.63-2.565-1.088-3.794.212.027.419.064.636.064h1v-5c0-2.757-2.243-5-5-5h-1v3.149c-1.155-1.167-2.396-2.272-3.41-3.013l-1.18 1.614c1.443 1.055 3.389 2.915 4.789 4.568.258.935.773 1.757 1.476 2.388 1.519 3.15 2.325 6.704 2.325 10.294 0 2.574-.409 5.088-1.197 7.483-.805.635-1.384 1.485-1.648 2.471-.138.518-.164 1.043-.12 1.56-.931 1.663-2.058 3.178-3.355 4.518-2.269.147-4.136 1.792-4.579 3.968h-3.864c5.165-3.479 8.763-11.133 8.763-20 0-12.131-6.729-22-15-22s-15 9.869-15 22c0 8.867 3.598 16.521 8.763 20h-3.864c-.444-2.176-2.311-3.821-4.579-3.968-1.297-1.339-2.424-2.855-3.355-4.518.045-.518.019-1.043-.12-1.56-.264-.987-.843-1.836-1.648-2.471-.788-2.395-1.197-4.909-1.197-7.483 0-3.59.806-7.144 2.325-10.294.703-.631 1.218-1.452 1.476-2.388 1.399-1.653 3.346-3.513 4.789-4.568l-1.18-1.614c-1.014.742-2.255 1.846-3.41 3.013v-3.149h-1c-2.757 0-5 2.243-5 5v5h1c.217 0 .424-.037.634-.064-.458 1.228-.821 2.497-1.088 3.794l-1.992-3.13-.814.427c-1.287.674-2.228 1.822-2.583 3.151-.341 1.276-.131 2.603.589 3.735l2.698 4.24.814-.427c.298-.156.573-.343.83-.547.108 1.309.323 2.598.625 3.864l-2.532-1.373-.496.805c-.667 1.084-.856 2.353-.53 3.571.337 1.262 1.179 2.312 2.37 2.958l4.294 2.326.259-.42c.476.729.994 1.423 1.541 2.09h-2.619v1c0 2.045 1.237 3.802 3 4.576v4.424h-13.387l2.333 7-2.333 7h26.387v-6h8v6h26.387l-2.333-7zm-11.387-42.829c1.164.413 2 1.525 2 2.829v2.829c-1.164-.413-2-1.525-2-2.829zm-40 2.829c0-1.304.836-2.416 2-2.829v2.829c0 1.304-.836 2.416-2 2.829zm44.913 22.529c-.194.726-.688 1.335-1.39 1.716l-2.48 1.343c-.069-.368-.055-.747.044-1.118.194-.726.688-1.335 1.389-1.715l2.481-1.343c.069.367.055.747-.044 1.117zm-.478-11.617 1.646-2.586c.404.378.69.845.829 1.366.194.729.072 1.491-.345 2.146l-1.646 2.586c-.404-.378-.69-.846-.829-1.367-.194-.727-.071-1.49.345-2.145zm-8.435 21.088h2.829c-.413 1.164-1.525 2-2.829 2h-2.829c.413-1.164 1.525-2 2.829-2zm-15-38c3.116 0 5.977 1.698 8.219 4.52-2.225 1.581-5.163 2.48-8.219 2.48s-5.994-.899-8.219-2.48c2.242-2.822 5.103-4.52 8.219-4.52zm-9.363 6.161c2.56 1.81 5.906 2.839 9.363 2.839s6.803-1.029 9.363-2.839c2.247 3.596 3.637 8.469 3.637 13.839s-1.39 10.243-3.637 13.839c-2.56-1.81-5.906-2.839-9.363-2.839s-6.803 1.029-9.363 2.839c-2.247-3.596-3.637-8.469-3.637-13.839s1.39-10.243 3.637-13.839zm1.144 29.319c2.225-1.581 5.163-2.48 8.219-2.48s5.994.899 8.219 2.48c-2.242 2.822-5.103 4.52-8.219 4.52s-5.977-1.698-8.219-4.52zm-14.872-16.421c-.139.521-.424.988-.829 1.367l-1.646-2.586c-.417-.655-.539-1.417-.345-2.146.139-.521.425-.988.829-1.366l1.646 2.586c.417.653.54 1.415.345 2.145zm3.048 12.529-2.48-1.343c-.702-.38-1.196-.99-1.39-1.716-.099-.371-.113-.75-.044-1.118l2.48 1.343c.702.38 1.196.989 1.39 1.715.099.372.113.752.044 1.119zm2.214 6.412h2.829c1.304 0 2.416.836 2.829 2h-2.829c-1.304 0-2.416-.836-2.829-2zm7.829 4h20 5v10h-30v-10zm-17.613 6h10.613v5.594l8.078 4.406h-18.691l1.667-5zm21.613 9.315-6.078-3.315h6.078zm18.078-3.315-6.078 3.315v-3.315zm15.535 4h-18.691l8.078-4.406v-5.594h10.613l-1.667 5z"/><path d="m29 28v2h2v2h2v-2h2v-2h-2v-2h2v-2h-2v-2h2v-2h-2v-2h2v-2h-2v-2h-2v2h-2v2h2v2h-2v2h2v2h-2v2h2v2z"/><path d="m19 47h26v2h-26z"/><path d="m19 51h26v2h-26z"/></svg>
