<?xml version="1.0" standalone="no"?>
<!DOCTYPE svg PUBLIC "-//W3C//DTD SVG 20010904//EN"
 "http://www.w3.org/TR/2001/REC-SVG-20010904/DTD/svg10.dtd">
<svg version="1.0" xmlns="http://www.w3.org/2000/svg"
 width="700.000000pt" height="700.000000pt" viewBox="0 0 700.000000 700.000000"
 preserveAspectRatio="xMidYMid meet">
<metadata>
Created by potrace 1.11, written by Peter Selinger 2001-2013
</metadata>
<g transform="translate(0.000000,700.000000) scale(0.100000,-0.100000)"
fill="#000000" stroke="none">
<path d="M3389 6886 c-2 -2 -29 -6 -59 -10 -30 -3 -72 -11 -94 -17 -21 -6 -46
-12 -55 -14 -9 -2 -46 -14 -82 -28 -364 -137 -696 -464 -915 -898 -104 -208
-225 -555 -251 -724 -2 -16 -8 -46 -13 -65 -13 -54 -34 -207 -47 -345 -16
-159 -8 -604 12 -727 2 -13 6 -45 10 -73 3 -27 8 -59 10 -70 3 -11 7 -31 9
-45 57 -334 191 -701 358 -979 120 -199 324 -431 476 -544 42 -31 58 -47 45
-48 -23 -1 -362 -1 -384 0 -11 1 -19 13 -23 34 -9 44 -64 149 -105 200 -76 93
-200 166 -324 189 -65 12 -70 15 -125 76 -76 85 -185 231 -248 334 -49 78 -52
88 -57 163 -8 131 -66 256 -156 338 -27 24 -42 50 -55 93 -21 71 -53 197 -60
239 -3 17 -8 41 -11 55 -48 226 -52 652 -10 870 3 14 7 43 11 65 31 220 172
615 248 695 48 51 74 93 103 162 14 35 39 79 55 98 60 70 285 293 352 348 37
31 84 71 102 87 l35 30 -64 87 -64 86 -87 -70 c-48 -38 -132 -112 -186 -165
l-100 -95 -2 173 -3 173 -55 -1 c-85 0 -174 -12 -221 -28 -163 -58 -288 -184
-346 -349 -25 -70 -25 -78 -27 -394 l-2 -323 88 3 c48 2 88 0 88 -3 0 -3 -11
-38 -25 -77 -14 -39 -40 -128 -58 -198 l-34 -127 -20 29 c-11 16 -59 91 -107
167 -48 75 -90 137 -92 137 -2 0 -37 -17 -76 -37 -95 -49 -212 -164 -252 -248
-67 -139 -76 -275 -25 -411 21 -55 48 -101 228 -384 l114 -179 56 29 c31 16
70 39 88 50 l32 21 5 -23 c3 -13 8 -45 11 -73 10 -83 25 -176 41 -243 9 -35
14 -66 11 -68 -4 -4 -61 24 -188 94 -42 23 -79 42 -82 42 -6 0 -78 -124 -95
-163 -36 -85 -43 -223 -17 -315 27 -92 64 -153 134 -223 63 -62 131 -105 368
-230 29 -15 91 -49 138 -74 l86 -47 15 21 c15 21 17 19 70 -55 31 -43 66 -92
80 -109 13 -18 24 -34 24 -36 0 -3 -61 -4 -135 -4 -128 0 -136 -1 -141 -20 -7
-31 3 -175 16 -225 34 -131 136 -265 249 -330 l60 -35 1 -242 0 -243 -730 0
c-402 0 -730 -2 -730 -4 0 -3 57 -175 126 -383 l125 -378 -125 -376 c-69 -208
-126 -380 -126 -383 0 -3 648 -6 1440 -6 l1440 0 1 23 c0 12 1 159 1 327 l0
306 437 -1 436 0 2 -305 c1 -168 2 -315 2 -327 l1 -23 1440 0 c792 0 1440 3
1440 6 0 3 -57 175 -126 382 l-125 377 125 378 c69 207 126 380 126 382 0 3
-328 5 -730 5 l-730 0 0 243 0 242 47 25 c109 58 209 180 253 309 23 71 39
259 22 270 -6 3 -69 6 -141 5 -72 0 -131 2 -131 4 0 3 18 28 39 56 21 28 57
77 79 109 39 56 41 57 55 37 l15 -21 53 26 c30 15 62 34 72 43 9 8 17 12 17 7
0 -4 6 -3 13 2 13 11 57 35 192 108 158 84 202 114 259 176 31 33 68 83 82
110 63 125 73 283 26 404 -17 45 -91 175 -100 175 -4 0 -94 -48 -221 -117 -24
-13 -45 -22 -48 -19 -2 2 0 21 6 42 17 65 48 259 53 337 1 15 4 27 5 27 2 0
22 -12 46 -27 23 -15 63 -37 90 -50 l47 -22 30 52 c17 29 83 133 146 232 172
266 199 330 194 455 -1 25 -2 52 -2 60 -1 39 -24 111 -56 175 -46 92 -142 187
-246 245 -76 41 -80 42 -93 24 -8 -10 -58 -87 -110 -170 l-97 -151 -37 146
c-21 80 -44 162 -52 181 -35 85 -39 80 60 80 l89 0 -1 318 c-1 294 -3 322 -23
382 -31 97 -68 157 -143 233 -108 108 -226 155 -405 160 l-79 2 -3 -174 -2
-173 -73 70 c-39 39 -82 79 -93 89 -12 10 -43 37 -70 60 -27 23 -69 57 -93 76
l-44 35 -56 -77 c-32 -42 -60 -81 -64 -87 -4 -7 35 -47 101 -102 98 -82 307
-287 380 -372 16 -19 41 -63 55 -97 27 -66 71 -136 107 -168 67 -61 211 -467
246 -695 3 -25 8 -54 10 -65 34 -221 39 -573 9 -735 -2 -14 -7 -43 -10 -65 -6
-44 -9 -64 -25 -140 -17 -83 -18 -87 -43 -177 -23 -79 -31 -95 -85 -153 -92
-101 -142 -222 -142 -345 0 -54 -11 -77 -92 -199 -63 -94 -134 -186 -209 -271
-56 -63 -60 -66 -126 -78 -114 -21 -246 -94 -306 -169 -10 -13 -25 -29 -32
-37 -23 -23 -84 -144 -91 -181 -5 -27 -11 -35 -28 -36 -24 -1 -364 -1 -384 0
-8 1 15 22 50 48 115 86 277 256 384 405 206 284 394 753 450 1118 3 25 8 54
10 65 2 11 7 40 10 65 3 25 7 56 10 70 27 159 26 611 -1 835 -12 101 -18 138
-41 255 -72 359 -209 707 -388 985 -165 255 -424 501 -641 608 -120 59 -242
102 -345 122 -41 7 -304 17 -311 11z"/>
</g>
</svg>
